<svg xmlns="http://www.w3.org/2000/svg" id="a0d1bb41-43f5-4171-97bf-0178ba49cd21" data-name="Layer 1" width="461.5448mm" height="129.2342mm" viewBox="0 0 1308.3161 366.333"><g><path d="M327.0488,69.8616l-35.3349-.9535s-19.6305-4.2626-54.4046,31.6332-48.7958,53.8436-57.77,58.3306-23.5566,3.3652-23.5566,3.3652L154.3,182.9894H316.9531V150.4588H258.1365a4.5619,4.5619,0,0,1-4.5619-4.5619V132.7285a15.4759,15.4759,0,0,1,4.2561-10.6594c5.9265-6.2406,17.2479-16.443,28.8353-17.6017,16.8262-1.6827,40.2145-1.1218,40.2145-1.1218Z" fill="#ed1e24" style="isolation: isolate"></path><path d="M433.6144,61.8411h-73.719a17.3775,17.3775,0,0,0-12.5576,5.383c-3.7319,3.9026-8.4809,9.5629-8.5107,15.93-.07,14.8888,26.9218,28.6045,35.3349,36.4567s16.226,19.29,10.15,27.2855c-3.9261,6.1695-63.9933,1.1239-63.9933,1.1239l-.1682,34.8849,82.6681.5369a20.8425,20.8425,0,0,0,17.0994-8.5073c4.1236-5.6485,8.14-13.8477,7.5272-23.9151-1.0024-16.4748-9.5348-33.0914-21.3131-42.0654s-16.7036-6.9884-16.8262-13.4609c-.1187-6.27,3.0648-9.546,7.8522-10.0957C403.9365,84.6194,433.53,86.52,433.53,86.52Z" fill="#ed1e24" style="isolation: isolate"></path><path d="M445.7678,65.1411h21.9475l7.8915,23.6743a15.2536,15.2536,0,0,1-.7963,11.5819l-18.8151,38.0679a17.4123,17.4123,0,0,0-1.7829,8.5433l.3343,7.02-9.3277,1.0974-8.1243-13.1537a11.0419,11.0419,0,0,1-.293-11.1076c5.0146-9.1576,14.498-26.9472,16.0989-33.3509C455.0955,88.7347,445.7678,65.1411,445.7678,65.1411Z" fill="#231f57" style="isolation: isolate"></path><g style="isolation: isolate"><path d="M416.1943,224.1243q0-5.2688-3.4669-8.0775t-10.0537-2.8084H390.887v21.8409h11.7867q6.5865,0,10.0537-2.843T416.1943,224.1243Z" fill="#231f57"></path><path d="M357.2249,215.2493a19.0732,19.0732,0,0,0-9.6028-2.4267,19.4535,19.4535,0,0,0-9.6721,2.4267,17.6612,17.6612,0,0,0-6.7949,6.691,19.6916,19.6916,0,0,0,0,19.0672,17.654,17.654,0,0,0,6.7949,6.6906,19.4387,19.4387,0,0,0,9.6721,2.4266,19.0589,19.0589,0,0,0,9.6028-2.4266,17.8041,17.8041,0,0,0,6.7256-6.6906,19.6944,19.6944,0,0,0,0-19.0672A17.8115,17.8115,0,0,0,357.2249,215.2493Z" fill="#231f57"></path><path d="M259.6707,215.2493a19.0734,19.0734,0,0,0-9.6027-2.4267,19.4548,19.4548,0,0,0-9.6723,2.4267,17.6619,17.6619,0,0,0-6.7949,6.691,19.6944,19.6944,0,0,0,0,19.0672,17.6547,17.6547,0,0,0,6.7949,6.6906,19.44,19.44,0,0,0,9.6723,2.4266,19.059,19.059,0,0,0,9.6027-2.4266,17.8051,17.8051,0,0,0,6.7257-6.6906,19.6944,19.6944,0,0,0,0-19.0672A17.8125,17.8125,0,0,0,259.6707,215.2493Z" fill="#231f57"></path><path d="M564.7508,215.18l-1.0086-53.4568a14.8024,14.8024,0,0,0-2.8773-8.4937l-15.8185-21.4968a8.7059,8.7059,0,0,0-7.4951-3.5328l-24.9259,1.3848s-20.3018-24.1427-32.3729-21.9474l-16.46,27.9829s-3.2921,12.0712,5.4869,15.912,15.9119-3.8408,15.9119-3.8408l13.8412,1.483a23.1,23.1,0,0,0,3.0523.1238l19.8686-.5094s16.4606,9.8763,16.4606,18.1066-4.9381,9.8764-12.62,10.9738c-1.8415.2631-26.8773,1.27-62.4627,1.23-9.4856-.0106-18.8544,3.7018-29.7677,3.6765-95.4946-.2214-224.443-.4271-271.5531-.5a262.1135,262.1135,0,0,1-27.2911-1.4144c-14.2868-1.5179-41.3646-1.5542-51.1679,17.8577-9.0576,17.9353-4.3895,36.2133-12.62,44.9924s-16.4606,6.5842-16.4606,6.5842l1.0973,38.9568,48.8333-2.1947s4.9381,8.23,10.425,8.23,7.6816-4.3895,13.7172-4.9382,18.1067,24.1423,18.1067,24.1423l66.94,2.1948,21.9476-29.6292,190.3946-1.6461s11.5225,25.7883,15.912,27.9831,38.4081,2.7434,38.4081,2.7434,30.7266-35.6647,32.3726-39.5055,25.7883-3.2921,25.7883-3.2921,27.4345-36.7621,29.6292-44.9924A13.4308,13.4308,0,0,0,564.7508,215.18ZM206.9426,255.7409l-.0694-35.3609-17.5416,29.4674h-3.19l-17.5416-29.2593v35.1528h-6.6562V207.2064H167.63L187.8755,241.32l19.9685-34.1131h5.6854l.0695,48.5345Zm65.5205-11.5444a23.6575,23.6575,0,0,1-9.2216,8.875,28.6664,28.6664,0,0,1-26.4165,0,23.8209,23.8209,0,0,1-9.2562-8.91,25.6179,25.6179,0,0,1,0-25.3765,23.8279,23.8279,0,0,1,9.2562-8.91,28.6672,28.6672,0,0,1,26.4165,0,23.6644,23.6644,0,0,1,9.2216,8.875,25.9822,25.9822,0,0,1,0,25.4457Zm46.3852-30.9581h-16.64v42.5025h-6.8637V213.2384H278.7035v-6.032h40.1448Zm51.1689,30.9581a23.6554,23.6554,0,0,1-9.2216,8.875,28.666,28.666,0,0,1-26.4163,0,23.822,23.822,0,0,1-9.2566-8.91,25.6192,25.6192,0,0,1,0-25.3765,23.829,23.829,0,0,1,9.2566-8.91,28.6668,28.6668,0,0,1,26.4163,0,23.6624,23.6624,0,0,1,9.2216,8.875,25.9835,25.9835,0,0,1,0,25.4457Zm46.3848,11.5444-10.47-14.907q-1.9416.14-3.0506.1385H390.887v14.7685h-6.9338V207.2064h18.9286q9.4286,0,14.8378,4.5067,5.4081,4.5084,5.408,12.4112a16.239,16.239,0,0,1-2.7732,9.5681,15.6726,15.6726,0,0,1-7.9044,5.7547l11.51,16.2938Zm48.8114-6.2747a13.93,13.93,0,0,1-6.3094,4.9922,26.0966,26.0966,0,0,1-10.4,1.8373,33.1978,33.1978,0,0,1-10.5738-1.6989,21.7079,21.7079,0,0,1-8.0078-4.4028l2.5651-5.4081a21.2352,21.2352,0,0,0,7.1069,4.0563,26.1146,26.1146,0,0,0,8.91,1.56q6.0318,0,9.0134-2.0454a6.3043,6.3043,0,0,0,2.9814-5.4427,5.3662,5.3662,0,0,0-1.6291-4.0563,10.9017,10.9017,0,0,0-4.0217-2.392q-2.3917-.8322-6.76-1.8719a69.47,69.47,0,0,1-8.84-2.6348,14.5966,14.5966,0,0,1-5.7547-4.0559,10.8294,10.8294,0,0,1-2.3925-7.3842,12.4949,12.4949,0,0,1,2.0454-7.0031,14.0477,14.0477,0,0,1,6.2056-4.9918,25.1631,25.1631,0,0,1,10.3311-1.8723,32.7251,32.7251,0,0,1,8.4586,1.1095,22.5153,22.5153,0,0,1,7.1415,3.19l-2.2877,5.5465a25.1761,25.1761,0,0,0-6.5176-2.9468,24.3571,24.3571,0,0,0-6.7948-1.0051q-5.894,0-8.84,2.1492a6.5835,6.5835,0,0,0-2.9468,5.547,5.3046,5.3046,0,0,0,1.6642,4.0558,11.5338,11.5338,0,0,0,4.1255,2.4271,64.1288,64.1288,0,0,0,6.6906,1.8373,67.9816,67.9816,0,0,1,8.8058,2.6348,14.8284,14.8284,0,0,1,5.72,4.0212,10.5923,10.5923,0,0,1,2.392,7.28A12.39,12.39,0,0,1,465.2134,249.4662Z" fill="#231f57"></path></g></g><g><g><path d="M615.4526,78.8971H621.82v54.7252h33.73V139.13H615.4526Z" fill="#231f57"></path><path d="M704.0793,123.0391H670.5212L663.2929,139.13h-6.6252l27.535-60.2325h6.2811L718.0187,139.13h-6.7111Zm-2.323-5.1633L687.3008,85.5222l-14.4566,32.3536Z" fill="#231f57"></path><path d="M778.3378,78.8971V139.13h-5.2492L734.3672,90.2549V139.13H728V78.8971h5.2492l38.8061,48.874V78.8971Z" fill="#231f57"></path><path d="M839.0857,139.13l-13.7675-19.3607a43.66,43.66,0,0,1-4.8193.2586H804.3224V139.13h-6.3671V78.8971h22.5436q11.5311,0,18.0708,5.5066t6.5392,15.1446a19.5805,19.5805,0,0,1-3.5706,11.9174,19.7784,19.7784,0,0,1-10.1969,7.0127L846.056,139.13Zm-5.0773-28.4815q4.7326-3.9569,4.7333-11.1,0-7.3134-4.7333-11.23-4.7327-3.9142-13.6815-3.9151H804.3224v30.2025h16.0045Q829.2763,114.6062,834.0084,110.6481Z" fill="#231f57"></path><path d="M902.76,133.6223V139.13H860.1662V78.8971h41.3024v5.5066H866.5334v21.4257h31.1491v5.4213H866.5334v22.3716Z" fill="#231f57"></path><path d="M944.0173,137.4945a23.6158,23.6158,0,0,1-9.5078-5.6786l2.4951-4.9047a23.8741,23.8741,0,0,0,8.6914,5.2916,31.7391,31.7391,0,0,0,11.1852,2.0221q8.0883,0,12.1336-2.9686a9.1468,9.1468,0,0,0,4.0441-7.7013,7.7067,7.7067,0,0,0-2.1946-5.7652,14.838,14.838,0,0,0-5.3777-3.3126,87.2345,87.2345,0,0,0-8.8634-2.5386,92.6439,92.6439,0,0,1-10.8412-3.3126,17.7745,17.7745,0,0,1-6.9267-4.8616q-2.8851-3.2692-2.8826-8.8628a15.0267,15.0267,0,0,1,2.409-8.3039,16.4992,16.4992,0,0,1,7.4-5.98,30.2894,30.2894,0,0,1,12.39-2.2371A36.5045,36.5045,0,0,1,968.2832,79.8a29.09,29.09,0,0,1,8.5619,3.9151l-2.1511,5.0773a29.6386,29.6386,0,0,0-8.0894-3.7431,30.2143,30.2143,0,0,0-8.4323-1.2476q-7.9174,0-11.9167,3.0546a9.4755,9.4755,0,0,0-4.0018,7.8733,7.8515,7.8515,0,0,0,2.1947,5.8082,14.3724,14.3724,0,0,0,5.506,3.3556q3.312,1.1617,8.9058,2.5386a89.7027,89.7027,0,0,1,10.7129,3.2266,17.5929,17.5929,0,0,1,6.9267,4.8186q2.84,3.2266,2.84,8.7338a14.8263,14.8263,0,0,1-2.4526,8.3033,16.4822,16.4822,0,0,1-7.5287,5.9372,31.4512,31.4512,0,0,1-12.4776,2.1946A38.6786,38.6786,0,0,1,944.0173,137.4945Z" fill="#231f57"></path><path d="M1043.53,78.8971V139.13h-6.2824V111.3367H999.56V139.13h-6.3672V78.8971H999.56v26.8463h37.6882V78.8971Z" fill="#231f57"></path><path d="M1063.1476,78.8971h6.3671V139.13h-6.3671Z" fill="#231f57"></path><path d="M1100.8346,84.4037h-21.1678V78.8971H1128.37v5.5066h-21.1678V139.13h-6.3671Z" fill="#231f57"></path><path d="M1151.0851,84.4037h-21.1677V78.8971H1178.62v5.5066h-21.1678V139.13h-6.3672Z" fill="#231f57"></path><path d="M1193.5914,132.9344q-6.54-6.7121-6.5391-19.5327V78.8971h6.3671v34.2466q0,10.4982,4.7321,15.66t13.6815,5.1632q9.0348,0,13.7674-5.1632t4.7333-15.66V78.8971h6.1952v34.5046q0,12.8218-6.4968,19.5327t-18.1991,6.7117Q1200.1312,139.6461,1193.5914,132.9344Z" fill="#231f57"></path></g><line x1="615.4526" y1="168.4308" x2="1237.8608" y2="168.4308" fill="#231f57" stroke="#231f20" stroke-miterlimit="10" stroke-width="5"></line><g><path d="M706.4407,298.7321l-.1413-65.6585-32.5466,54.3386h-8.2073l-32.5466-53.4895v64.8094H615.4526V199.6779h15.14l39.34,65.6585,38.63-65.6585h15.1416l.1413,99.0542Z" fill="#231f57"></path><path d="M769.5507,293.5667a48.71,48.71,0,0,1-19.1045-18.2541,52.6232,52.6232,0,0,1,0-52.2152,48.7114,48.7114,0,0,1,19.1045-18.2548,59.9694,59.9694,0,0,1,54.6212,0,48.9138,48.9138,0,0,1,19.1032,18.1842,52.8888,52.8888,0,0,1,0,52.3564,48.8994,48.8994,0,0,1-19.1032,18.1835,59.9589,59.9589,0,0,1-54.6212,0Zm45.14-14.0086a32.2476,32.2476,0,0,0,12.4529-12.4528,37.6447,37.6447,0,0,0,0-35.8006A32.2559,32.2559,0,0,0,814.69,218.8518a37.8871,37.8871,0,0,0-35.6592,0,32.2311,32.2311,0,0,0-12.4529,12.4529,37.6447,37.6447,0,0,0,0,35.8006,32.2228,32.2228,0,0,0,12.4529,12.4528,37.8864,37.8864,0,0,0,35.6592,0Z" fill="#231f57"></path><path d="M888.4159,215.2434H855.5867V199.6779h84.054v15.5655H906.8114v83.4887H888.4159Z" fill="#231f57"></path><path d="M971.0555,293.5667a48.71,48.71,0,0,1-19.1045-18.2541,52.6232,52.6232,0,0,1,0-52.2152,48.7114,48.7114,0,0,1,19.1045-18.2548,59.9694,59.9694,0,0,1,54.6212,0,48.9147,48.9147,0,0,1,19.1033,18.1842,52.8894,52.8894,0,0,1,0,52.3564,48.9,48.9,0,0,1-19.1033,18.1835,59.9589,59.9589,0,0,1-54.6212,0Zm45.14-14.0086a32.2476,32.2476,0,0,0,12.4529-12.4528,37.6447,37.6447,0,0,0,0-35.8006,32.2559,32.2559,0,0,0-12.4529-12.4529,37.8871,37.8871,0,0,0-35.6592,0,32.2317,32.2317,0,0,0-12.4529,12.4529,37.6447,37.6447,0,0,0,0,35.8006,32.2234,32.2234,0,0,0,12.4529,12.4528,37.8864,37.8864,0,0,0,35.6592,0Z" fill="#231f57"></path><path d="M1136.05,298.7321l-20.235-29.0088a37.67,37.67,0,0,1-3.8205.1413h-22.3584v28.8675H1071.24V199.6779h40.7539q12.8733,0,22.4279,4.245a32.6125,32.6125,0,0,1,14.6458,12.17,34.05,34.05,0,0,1,5.0946,18.8207q0,11.1792-5.4479,19.2446a32.4056,32.4056,0,0,1-15.6362,12.0277l22.7824,32.5466Zm-6.65-78.3946q-6.2283-5.0939-18.2542-5.0941h-21.5093v39.4808h21.5093q12.0254,0,18.2542-5.1653,6.2247-5.1648,6.2264-14.6457Q1135.6256,225.4334,1129.3992,220.3375Z" fill="#231f57"></path><path d="M1183.2407,296.8925q-10.6851-3.2534-16.91-8.6324l6.3678-14.2913a50.0942,50.0942,0,0,0,14.9295,7.8528,54.2319,54.2319,0,0,0,17.7584,3.0432q11.0391,0,16.4864-3.5378,5.445-3.5353,5.448-9.339a9.0451,9.0451,0,0,0-3.0431-7.0049,21.4032,21.4032,0,0,0-7.7115-4.3163q-4.6707-1.5557-12.7355-3.5377a147.7273,147.7273,0,0,1-18.3249-5.3774,30.1233,30.1233,0,0,1-12.0289-8.4193q-5.0245-5.7306-5.0228-15.4948a26.4275,26.4275,0,0,1,4.4575-14.929q4.4569-6.72,13.4421-10.684,8.9859-3.9592,22.0052-3.9617a71.1568,71.1568,0,0,1,17.829,2.2641,49.3088,49.3088,0,0,1,15.1415,6.5091l-5.8013,14.2924a57.3112,57.3112,0,0,0-13.5846-5.8019,50.85,50.85,0,0,0-13.726-1.9814q-10.8989,0-16.2026,3.68a11.3509,11.3509,0,0,0-5.3067,9.7636,8.8222,8.8222,0,0,0,3.042,6.9342,21.9539,21.9539,0,0,0,7.7127,4.2444q4.6689,1.5593,12.7355,3.5378a134.13,134.13,0,0,1,18.1129,5.3066,31.05,31.05,0,0,1,12.0983,8.4193q5.0211,5.6623,5.0241,15.2829a26.1006,26.1006,0,0,1-4.4576,14.8589q-4.4587,6.6522-13.514,10.6121-9.0576,3.9612-22.0757,3.963A75.5973,75.5973,0,0,1,1183.2407,296.8925Z" fill="#231f57"></path></g></g></svg>